<svg width="68" height="60" viewBox="0 0 68 60" fill="none" xmlns="http://www.w3.org/2000/svg">
<circle cx="33.9268" cy="30" r="2" fill="#19FFC8"/>
<path d="M60.9268 30C60.9268 44.9117 48.8384 57 33.9268 57C19.0151 57 6.92676 44.9117 6.92676 30C6.92676 15.0883 19.0151 3 33.9268 3C48.8384 3 60.9268 15.0883 60.9268 30ZM9.262 30C9.262 43.622 20.3048 54.6648 33.9268 54.6648C47.5487 54.6648 58.5915 43.622 58.5915 30C58.5915 16.378 47.5487 5.33525 33.9268 5.33525C20.3048 5.33525 9.262 16.378 9.262 30Z" fill="url(#paint0_linear_202_89)"/>
<path d="M8.2002 14.5107C4.93019 17.3058 2.66901 23.2981 2.66895 30.2402C2.66895 37.1815 4.92895 43.1741 8.19824 45.9697C3.62136 45.4409 0 38.6014 0 30.2402C8.75033e-05 21.878 3.62242 15.0378 8.2002 14.5107Z" fill="url(#paint1_linear_202_89)"/>
<path d="M59.6543 14.5107C62.9243 17.3058 65.1855 23.2981 65.1855 30.2402C65.1855 37.1815 62.9255 43.1741 59.6562 45.9697C64.2331 45.4409 67.8545 38.6014 67.8545 30.2402C67.8544 21.878 64.2321 15.0378 59.6543 14.5107Z" fill="url(#paint2_linear_202_89)"/>
<path d="M57.8994 30C57.8994 43.2397 47.1665 53.9727 33.9268 53.9727C20.687 53.9727 9.9541 43.2397 9.9541 30C9.9541 16.7603 20.687 6.02734 33.9268 6.02734C47.1665 6.02734 57.8994 16.7603 57.8994 30ZM10.7088 30C10.7088 42.8229 21.1038 53.218 33.9268 53.218C46.7497 53.218 57.1447 42.8229 57.1447 30C57.1447 17.1771 46.7497 6.78204 33.9268 6.78204C21.1038 6.78204 10.7088 17.1771 10.7088 30Z" fill="white" fill-opacity="0.15"/>
<defs>
<linearGradient id="paint0_linear_202_89" x1="33.9268" y1="3" x2="33.9268" y2="57" gradientUnits="userSpaceOnUse">
<stop stop-color="#19FFC8"/>
<stop offset="1" stop-color="#0E7058"/>
</linearGradient>
<linearGradient id="paint1_linear_202_89" x1="4.10016" y1="14.5107" x2="4.10016" y2="45.9697" gradientUnits="userSpaceOnUse">
<stop stop-color="#00E6B0"/>
<stop offset="1" stop-color="#008062"/>
</linearGradient>
<linearGradient id="paint2_linear_202_89" x1="63.7543" y1="14.5107" x2="63.7543" y2="45.9697" gradientUnits="userSpaceOnUse">
<stop stop-color="#00E6B0"/>
<stop offset="1" stop-color="#008062"/>
</linearGradient>
</defs>
</svg>
