<svg width="14" height="13" viewBox="0 0 14 13" fill="none" xmlns="http://www.w3.org/2000/svg">
<path d="M0.750329 6.86875C0.858104 7.93263 1.29579 8.9465 2.01218 9.79174C2.72857 10.637 3.69403 11.2786 4.79558 11.6416C5.89714 12.0046 7.08923 12.0738 8.23237 11.8413C9.37551 11.6088 10.4224 11.0841 11.2506 10.3286C12.0788 9.57313 12.6539 8.61811 12.9088 7.57531C13.1637 6.53251 13.0878 5.44505 12.6899 4.44019C12.292 3.43532 11.5886 2.5546 10.6621 1.9011C9.7355 1.24759 8.62407 0.848316 7.45782 0.75C8.14062 1.59267 8.46919 2.63091 8.38377 3.67588C8.29834 4.72086 7.8046 5.70316 6.99234 6.44412C6.18008 7.18509 5.10327 7.63549 3.95774 7.71342C2.81221 7.79134 1.67408 7.49162 0.750329 6.86875Z" stroke="white" stroke-width="1.5" stroke-linecap="round" stroke-linejoin="round"/>
</svg>
