<svg width="17" height="17" viewBox="0 0 17 17" fill="none" xmlns="http://www.w3.org/2000/svg">
<path d="M15.7182 8.90835C15.5871 10.3269 15.0547 11.6787 14.1834 12.8057C13.312 13.9327 12.1378 14.7882 10.7979 15.2721C9.45811 15.7561 8.00817 15.8485 6.61776 15.5384C5.22736 15.2284 3.95401 14.5288 2.9467 13.5215C1.93939 12.5142 1.2398 11.2408 0.929769 9.85043C0.619742 8.46003 0.71211 7.01009 1.19606 5.67026C1.68002 4.33044 2.53554 3.15615 3.66252 2.28481C4.78951 1.41347 6.14134 0.881103 7.55985 0.750015C6.72936 1.87357 6.32972 3.25789 6.43362 4.65119C6.53753 6.0445 7.13806 7.35423 8.12601 8.34218C9.11396 9.33013 10.4237 9.93067 11.817 10.0346C13.2103 10.1385 14.5946 9.73884 15.7182 8.90835Z" stroke="#00E6B0" stroke-width="1.5" stroke-linecap="round" stroke-linejoin="round"/>
</svg>
