<svg width="22" height="21" viewBox="0 0 22 21" fill="none" xmlns="http://www.w3.org/2000/svg">
<g filter="url(#filter0_d_78_236)">
<path d="M4.75033 10.8687C4.8581 11.9326 5.29579 12.9465 6.01218 13.7917C6.72857 14.637 7.69403 15.2786 8.79558 15.6416C9.89714 16.0046 11.0892 16.0738 12.2324 15.8413C13.3755 15.6088 14.4224 15.0841 15.2506 14.3286C16.0788 13.5731 16.6539 12.6181 16.9088 11.5753C17.1637 10.5325 17.0878 9.44505 16.6899 8.44019C16.292 7.43532 15.5886 6.5546 14.6621 5.9011C13.7355 5.24759 12.6241 4.84832 11.4578 4.75C12.1406 5.59267 12.4692 6.63091 12.3838 7.67588C12.2983 8.72086 11.8046 9.70316 10.9923 10.4441C10.1801 11.1851 9.10327 11.6355 7.95774 11.7134C6.81221 11.7913 5.67408 11.4916 4.75033 10.8687Z" stroke="white" stroke-width="1.5" stroke-linecap="round" stroke-linejoin="round"/>
</g>
<defs>
<filter id="filter0_d_78_236" x="-1.30469" y="-1.125" width="24.4434" height="23" filterUnits="userSpaceOnUse" color-interpolation-filters="sRGB">
<feFlood flood-opacity="0" result="BackgroundImageFix"/>
<feColorMatrix in="SourceAlpha" type="matrix" values="0 0 0 0 0 0 0 0 0 0 0 0 0 0 0 0 0 0 127 0" result="hardAlpha"/>
<feOffset/>
<feGaussianBlur stdDeviation="2"/>
<feComposite in2="hardAlpha" operator="out"/>
<feColorMatrix type="matrix" values="0 0 0 0 1 0 0 0 0 1 0 0 0 0 1 0 0 0 0.25 0"/>
<feBlend mode="normal" in2="BackgroundImageFix" result="effect1_dropShadow_78_236"/>
<feBlend mode="normal" in="SourceGraphic" in2="effect1_dropShadow_78_236" result="shape"/>
</filter>
</defs>
</svg>
