<svg width="18" height="15" viewBox="0 0 18 15" fill="none" xmlns="http://www.w3.org/2000/svg">
<path d="M0.336375 14.88L3.12038 4.224L3.93638 7.82399C2.81638 7.82399 1.87238 7.47199 1.10438 6.76799C0.368375 6.06399 0.000375152 5.11999 0.000375152 3.93599C0.000375152 2.75199 0.368375 1.80799 1.10438 1.104C1.87238 0.367995 2.80038 -4.76837e-06 3.88838 -4.76837e-06C5.00838 -4.76837e-06 5.93638 0.367995 6.67238 1.104C7.40838 1.84 7.77638 2.78399 7.77638 3.93599C7.77638 4.28799 7.74438 4.65599 7.68038 5.03999C7.64838 5.39199 7.55238 5.80799 7.39238 6.28799C7.26438 6.73599 7.04038 7.32799 6.72038 8.06399L4.22438 14.88H0.336375ZM10.5124 14.88L13.2964 4.224L14.1124 7.82399C12.9924 7.82399 12.0484 7.47199 11.2804 6.76799C10.5444 6.06399 10.1764 5.11999 10.1764 3.93599C10.1764 2.75199 10.5444 1.80799 11.2804 1.104C12.0484 0.367995 12.9764 -4.76837e-06 14.0644 -4.76837e-06C15.1844 -4.76837e-06 16.1124 0.367995 16.8484 1.104C17.5844 1.84 17.9524 2.78399 17.9524 3.93599C17.9524 4.28799 17.9204 4.65599 17.8564 5.03999C17.8244 5.39199 17.7284 5.80799 17.5684 6.28799C17.4404 6.73599 17.2164 7.32799 16.8964 8.06399L14.4004 14.88H10.5124Z" fill="white"/>
</svg>
