<svg width="34" height="34" viewBox="0 0 34 34" fill="none" xmlns="http://www.w3.org/2000/svg">
<g clip-path="url(#clip0_66_139)">
<path d="M25.5 14.1667H23.715C23.185 12.1139 22.0898 10.251 20.5539 8.78955C19.018 7.32813 17.103 6.32681 15.0265 5.89938C12.9499 5.47195 10.7951 5.63555 8.80692 6.37158C6.81871 7.10761 5.07682 8.38656 3.77917 10.0631C2.48152 11.7397 1.68015 13.7466 1.46611 15.8558C1.25208 17.9651 1.63396 20.0921 2.56838 21.9951C3.50279 23.8982 4.95226 25.5009 6.75208 26.6214C8.55191 27.7418 10.6299 28.3349 12.75 28.3333H25.5C27.3786 28.3333 29.1803 27.587 30.5087 26.2587C31.8371 24.9303 32.5833 23.1286 32.5833 21.25C32.5833 19.3714 31.8371 17.5697 30.5087 16.2413C29.1803 14.9129 27.3786 14.1667 25.5 14.1667Z" stroke="white" stroke-width="3" stroke-linecap="round" stroke-linejoin="round"/>
</g>
<defs>
<clipPath id="clip0_66_139">
<rect width="34" height="34" fill="white"/>
</clipPath>
</defs>
</svg>
