<svg width="356" height="64" viewBox="0 0 356 64" fill="none" xmlns="http://www.w3.org/2000/svg">
<path d="M0 32C0 20.9543 8.95431 12 20 12H336C347.046 12 356 20.9543 356 32C356 43.0457 347.006 52 335.96 52C215.719 52 140.281 52 20.0397 52C8.99399 52 0 43.0457 0 32Z" fill="#0A0E10"/>
<ellipse cx="178" cy="32" rx="32.1915" ry="32" fill="#0A0E10"/>
<path d="M224.805 52.0869C213.31 52.0869 200.238 56.8902 195.413 58.8867L195.03 57.9629C199.872 55.9594 213.1 51.0869 224.805 51.0869V52.0869ZM131.195 51.083C142.9 51.083 156.128 55.9555 160.97 57.959L160.587 58.8828C155.762 56.8863 142.69 52.083 131.195 52.083V51.083ZM160.97 6.52148C156.128 8.525 142.9 13.3975 131.195 13.3975V12.3975C142.69 12.3975 155.762 7.59423 160.587 5.59766L160.97 6.52148ZM195.413 5.59375C200.238 7.59032 213.31 12.3936 224.805 12.3936V13.3936C213.1 13.3936 199.872 8.5211 195.03 6.51758L195.413 5.59375Z" fill="#0A0E10"/>
<path d="M213.041 47.8726C214.388 47.5693 215.726 48.4153 216.029 49.7623C216.321 51.0601 215.545 52.3451 214.283 52.7086C214.275 52.7114 214.267 52.716 214.258 52.7193C214.202 52.7396 214.096 52.7764 213.963 52.8091L213.804 52.8472L213.661 52.8629C213.355 52.9427 213.093 52.9636 212.955 52.9713C212.879 52.9755 212.805 52.9777 212.763 52.9791C212.712 52.9807 212.681 52.9815 212.65 52.983C212.568 52.9869 212.483 52.9936 212.333 53.0347C211.999 53.1265 211.44 53.2943 210.903 53.3824C210.917 53.3801 210.908 53.3794 210.82 53.4068C210.768 53.423 210.721 53.4392 210.631 53.4683C210.549 53.4948 210.447 53.5276 210.331 53.5621C210.326 53.5637 210.297 53.5736 210.212 53.607C210.173 53.6222 210.101 53.6503 210.038 53.6744C209.97 53.7003 209.884 53.7321 209.788 53.7642C209.755 53.7753 209.717 53.7894 209.646 53.815C209.583 53.8373 209.492 53.8697 209.396 53.9019C209.208 53.9644 208.905 54.0579 208.548 54.107C208.544 54.1075 208.535 54.1071 208.411 54.1441C208.363 54.1586 208.232 54.199 208.1 54.232C207.955 54.2681 207.747 54.3122 207.501 54.3316C207.44 54.3364 207.416 54.3416 207.408 54.3433C207.4 54.3451 207.387 54.348 207.361 54.355C207.348 54.3588 207.332 54.3635 207.31 54.3697C207.3 54.3725 207.284 54.3767 207.268 54.3814C207.24 54.3916 207.156 54.4233 207.091 54.4459C206.908 54.5094 206.587 54.6107 206.185 54.6519C206.084 54.6623 205.99 54.671 205.922 54.6773C205.848 54.6841 205.803 54.6888 205.767 54.6929C205.714 54.6989 205.711 54.701 205.729 54.6968C205.722 54.6992 205.712 54.7028 205.7 54.7066C205.695 54.7082 205.69 54.7089 205.686 54.7105C205.312 54.9565 204.939 55.0911 204.677 55.1724C204.357 55.2717 203.988 55.3559 203.589 55.4361C203.213 55.5116 202.992 55.5479 202.663 55.6334C202.583 55.6541 202.52 55.6715 202.469 55.6861C202.385 55.7453 202.314 55.7946 202.264 55.8287C202.16 55.8986 202.137 55.9153 202.134 55.9175C201.845 56.1437 201.551 56.3006 201.398 56.3804C201.138 56.5166 201.173 56.4917 201.042 56.563C200.871 56.6563 200.708 56.7199 200.575 56.7672C200.135 57.1557 199.558 57.3941 198.925 57.3941C197.63 57.3941 196.566 56.4105 196.438 55.15L196.425 54.8941C196.425 53.9051 196.948 53.1919 197.424 52.7877L197.631 52.6255C198.114 52.2776 198.578 52.1407 198.803 52.0797C198.819 52.0752 198.836 52.0711 198.852 52.067C198.874 52.0554 198.895 52.0444 198.914 52.0347C198.993 51.9949 199.037 51.9728 199.083 51.9488C199.103 51.9382 199.117 51.9294 199.126 51.9244C199.27 51.8163 199.408 51.7238 199.468 51.6832C199.567 51.6161 199.598 51.5938 199.616 51.5797L199.761 51.4722C200.099 51.2348 200.431 51.0998 200.646 51.022C200.905 50.9278 201.178 50.8535 201.404 50.7945C201.911 50.6626 202.355 50.5836 202.604 50.5338C202.771 50.5001 202.901 50.472 203.003 50.4478C203.049 50.4368 203.087 50.4255 203.117 50.4175C203.641 50.0992 204.205 49.9283 204.463 49.8599C204.864 49.7536 205.297 49.7134 205.533 49.6929C205.542 49.6896 205.552 49.685 205.562 49.6812C205.595 49.6695 205.64 49.6533 205.69 49.6363C205.741 49.6191 205.806 49.5984 205.88 49.5777C206.059 49.5274 206.416 49.419 206.95 49.3629C206.96 49.36 206.971 49.3559 206.983 49.3521C207.134 49.3072 207.421 49.224 207.789 49.1675C207.795 49.1656 207.804 49.1626 207.815 49.1588C207.85 49.1472 207.89 49.133 207.957 49.1089C208.015 49.0881 208.105 49.0549 208.197 49.024C208.224 49.015 208.254 49.0039 208.393 48.9498C208.498 48.9085 208.69 48.8328 208.904 48.7691C208.967 48.7502 209.592 48.5312 210.095 48.4488C210.294 48.4161 210.485 48.3575 211.01 48.2134C211.599 48.0515 212.064 48.0054 212.413 47.9888C212.474 47.986 212.53 47.9853 212.572 47.9839C212.652 47.9653 212.727 47.9486 212.794 47.9371C212.873 47.9134 212.955 47.892 213.041 47.8726ZM143.049 48.1509C143.19 48.1535 143.431 48.165 143.658 48.1744C143.913 48.1849 144.234 48.1977 144.608 48.2076C145.083 48.2201 145.507 48.2797 145.812 48.3228C146.139 48.3692 146.37 48.4022 146.637 48.4195C147.506 48.4759 148.355 48.7951 148.383 48.8033C148.378 48.8019 148.384 48.8077 148.58 48.8297C148.7 48.8431 148.961 48.868 149.272 48.9371L149.598 49.022L149.812 49.0738C149.91 49.0936 150.032 49.1156 150.179 49.1382C150.202 49.1419 150.226 49.1445 150.25 49.148C150.39 49.1543 150.53 49.1732 150.669 49.2037C150.765 49.2151 150.855 49.2261 150.936 49.2349C151.893 49.3399 152.707 49.4093 153.501 49.8511C153.51 49.8552 153.53 49.8618 153.56 49.8726C153.626 49.897 153.716 49.9255 153.822 49.9547C154.306 50.0867 154.74 50.2795 155.104 50.4898C155.12 50.4958 155.148 50.5066 155.194 50.524C155.334 50.577 155.605 50.6781 155.925 50.8404C155.935 50.8439 155.959 50.8529 156.005 50.8677C156.048 50.8818 156.163 50.9188 156.274 50.9595C156.394 51.0035 156.567 51.0721 156.759 51.1744L156.85 51.2232L156.936 51.2789C157.17 51.43 157.486 51.5892 157.707 51.6851C158.875 51.8953 159.762 52.9156 159.762 54.1441C159.762 55.5247 158.642 56.6441 157.262 56.6441C156.953 56.6441 156.641 56.6054 156.233 56.4752L156.188 56.4605L156.144 56.4449C155.625 56.257 154.995 55.9426 154.466 55.6246C154.461 55.6231 154.456 55.6223 154.451 55.6207C154.316 55.5763 154.007 55.477 153.667 55.3013C153.616 55.275 153.575 55.2576 153.425 55.2007C153.359 55.176 153.235 55.1289 153.079 55.0601C152.344 55.2991 151.52 55.1898 150.866 54.7291C150.337 54.5746 149.971 54.3378 149.856 54.2613C149.823 54.2458 149.776 54.2252 149.697 54.191C149.635 54.1637 149.552 54.127 149.456 54.0845C149.047 54.0215 148.585 53.935 148.188 53.8179C148.173 53.816 148.126 53.8099 148.023 53.7984C147.838 53.7776 147.447 53.7377 147 53.6089C146.861 53.569 146.73 53.525 146.648 53.4986C146.555 53.4681 146.501 53.4519 146.453 53.438C146.376 53.416 146.343 53.4117 146.313 53.4097C145.825 53.3781 145.404 53.3154 145.111 53.274C144.796 53.2294 144.631 53.2097 144.477 53.2056C143.486 53.1796 143.24 53.156 142.958 53.1509C142.6 53.1445 142.313 53.1441 142.18 53.1441C140.799 53.1441 139.68 52.0248 139.68 50.6441C139.68 49.2635 140.799 48.1441 142.18 48.1441C142.321 48.1441 142.644 48.1437 143.049 48.1509ZM214.14 52.7496C214.165 52.7438 214.197 52.736 214.233 52.7252C214.243 52.7223 214.251 52.7181 214.26 52.7154C214.22 52.7265 214.181 52.7404 214.14 52.7496ZM157.383 51.65C157.369 51.649 157.356 51.6467 157.343 51.6461L157.262 51.6441C157.302 51.6441 157.343 51.648 157.383 51.65ZM155.771 7.50153C156.902 6.71069 158.461 6.987 159.252 8.11871C160.042 9.2503 159.766 10.8083 158.635 11.5992C158.54 11.6655 158.444 11.7264 158.38 11.7672C158.345 11.7889 158.31 11.8119 158.28 11.8306C158.249 11.8504 158.221 11.8674 158.194 11.8843C158.14 11.919 158.102 11.9436 158.074 11.9625C158.045 11.9827 158.047 11.9831 158.067 11.9664C157.822 12.1676 157.193 12.6805 156.691 12.9586C156.32 13.1646 155.983 13.286 155.764 13.3599C155.71 13.3781 155.658 13.3946 155.617 13.4078C155.574 13.422 155.542 13.4329 155.513 13.4429C155.454 13.4627 155.43 13.4715 155.421 13.4752C155.201 13.5663 155 13.6232 154.861 13.6588C154.727 13.6931 154.591 13.7223 154.524 13.7369C154.333 13.7785 154.365 13.7777 154.436 13.7486C154.245 13.8273 154.076 13.8789 153.955 13.9127C153.857 13.9399 153.722 13.9741 153.699 13.98C153.637 13.9962 153.628 14 153.643 13.9947C153.137 14.2277 152.655 14.2975 152.475 14.3248C152.331 14.3464 152.318 14.3467 152.264 14.356C152.021 14.4271 151.8 14.4702 151.632 14.4966C151.459 14.5238 151.277 14.5442 151.194 14.5543C151.164 14.558 151.14 14.5616 151.121 14.564C150.808 14.6861 150.522 14.748 150.316 14.7808C150.054 14.8226 149.812 14.8377 149.643 14.8453C149.555 14.8492 149.472 14.8522 149.407 14.8541C149.336 14.8561 149.292 14.8573 149.251 14.8589C149.248 14.8591 149.244 14.8588 149.241 14.8589C148.726 14.9608 148.428 15.0107 148.15 15.0797C147.582 15.2208 147.405 15.2477 147.056 15.3414C146.579 15.4694 146.294 15.5164 145.14 15.8716L145.139 15.8707C144.85 15.9603 144.656 16.0095 144.609 16.0211C144.594 16.0264 144.555 16.041 144.474 16.0748C143.199 16.6049 141.735 16.001 141.205 14.7261C140.675 13.4514 141.279 11.9887 142.554 11.4586C142.833 11.3423 143.049 11.2638 143.288 11.1988L143.402 11.1685C143.429 11.1616 143.447 11.157 143.466 11.1519C143.499 11.143 143.557 11.1268 143.661 11.0943L143.668 11.0923C144.934 10.7025 145.466 10.591 145.76 10.5123C146.088 10.4242 146.722 10.2817 146.946 10.2261C147.383 10.1178 148.02 10.0056 148.362 9.93707L148.593 9.89899C148.663 9.88982 148.725 9.88383 148.775 9.87946C148.881 9.87035 148.98 9.86582 149.056 9.86285C149.13 9.85994 149.209 9.8576 149.265 9.85602C149.327 9.85425 149.374 9.8531 149.418 9.85114C149.428 9.85067 149.438 9.84867 149.447 9.84821C149.683 9.75863 149.896 9.7072 150.057 9.67438C150.27 9.63064 150.471 9.60581 150.59 9.59137C150.913 9.55198 150.891 9.54964 150.848 9.56305C151.076 9.49191 151.281 9.4521 151.42 9.42828C151.491 9.41607 151.558 9.40631 151.607 9.39899C151.661 9.39103 151.684 9.38809 151.716 9.38336C152.026 9.25269 152.288 9.17964 152.453 9.13727C152.571 9.10689 152.576 9.10665 152.61 9.09723C152.979 8.95458 153.323 8.8814 153.462 8.85114C153.552 8.83154 153.587 8.82381 153.611 8.81793C153.728 8.77256 153.831 8.73292 153.915 8.70465C153.968 8.68671 154.021 8.66987 154.061 8.6568C154.104 8.64266 154.136 8.63182 154.166 8.62164C154.283 8.5822 154.287 8.57476 154.266 8.58649C154.234 8.60402 154.239 8.60414 154.29 8.56891C154.335 8.53795 154.394 8.49489 154.466 8.44098C154.609 8.33275 154.765 8.2084 154.897 8.10016C155.131 7.90911 155.378 7.74992 155.513 7.66461C155.559 7.63539 155.689 7.55252 155.705 7.54254C155.748 7.51525 155.767 7.50402 155.771 7.50153ZM197.705 8.54938C198.655 7.59939 200.177 7.5763 201.158 8.47516C201.288 8.52518 201.438 8.58847 201.601 8.66949C201.691 8.67711 201.758 8.67887 201.951 8.69098C202.118 8.70146 202.353 8.71861 202.613 8.75836C203.086 8.83064 203.444 8.87119 203.763 8.90875C204.031 8.9404 204.432 8.9851 204.799 9.07574C205.134 9.15866 205.537 9.26501 205.955 9.40387C206.112 9.45614 206.323 9.51211 206.622 9.58453C207.045 9.687 207.429 9.85848 207.65 9.96149C207.758 10.0115 207.935 10.0998 208.062 10.1627C208.069 10.1642 208.077 10.1658 208.085 10.1675C208.223 10.1977 208.579 10.2715 208.956 10.4166C208.967 10.4187 208.999 10.4248 209.07 10.4351C209.127 10.4433 209.302 10.4673 209.47 10.5005C209.548 10.5161 209.638 10.5385 209.736 10.565C209.974 10.5898 210.202 10.6168 210.455 10.65C210.731 10.6611 211.228 10.6646 211.848 10.6646C213.228 10.6646 214.348 11.7839 214.348 13.1646C214.347 14.5451 213.228 15.6646 211.848 15.6646C211.253 15.6646 210.551 15.6654 210.121 15.6422L210.025 15.6373L209.931 15.6246C209.507 15.5689 209.284 15.5405 209.022 15.5181L208.637 15.4849L208.415 15.3931C208.398 15.3906 208.377 15.3876 208.348 15.3834C208.118 15.3499 207.674 15.2836 207.156 15.0806C207.194 15.0955 207.203 15.0931 207.017 15.0523C206.95 15.0378 206.811 15.0069 206.671 14.9693C206.532 14.9319 206.299 14.8636 206.044 14.7408C205.95 14.6955 205.84 14.6403 205.766 14.6031C205.679 14.5603 205.607 14.5248 205.54 14.4937C205.473 14.4625 205.427 14.443 205.399 14.4322C205.102 14.3599 204.733 14.2669 204.378 14.149C204.137 14.0689 203.876 13.9987 203.6 13.9302C203.589 13.9282 203.565 13.9245 203.523 13.9185C203.442 13.9067 203.338 13.8936 203.177 13.8746C202.866 13.8378 202.426 13.7878 201.857 13.7007C201.82 13.6951 201.761 13.6889 201.638 13.6812C201.551 13.6758 201.328 13.664 201.146 13.648C200.744 13.6125 200.061 13.5243 199.354 13.1324C199.386 13.1499 199.403 13.1505 199.281 13.1099C199.181 13.0763 198.866 12.9781 198.537 12.8287C197.571 12.3889 197.12 11.5385 196.991 10.8716C196.909 10.4468 196.912 9.8861 197.175 9.31012C197.293 9.05207 197.432 8.8608 197.535 8.7359C197.585 8.67523 197.629 8.6277 197.657 8.59821C197.671 8.58331 197.684 8.57084 197.691 8.56305C197.698 8.55643 197.704 8.55049 197.705 8.54938Z" fill="#0A0E10"/>
</svg>
